<svg xmlns="http://www.w3.org/2000/svg" viewBox="0 0 600 600">
  <defs>
    <style>
      .a {
        fill: #5e3f99;
      }

      .b {
        fill: #ee2c5d;
      }

      .c {
        fill: #c2b59b;
      }

      .d {
        fill: #f6e75a;
      }
    </style>
  </defs>
  <title>dolo__brand--logo--standard</title>
  <path class="a" d="M421.61,83.18A101.66,101.66,0,0,0,330,228.81l-18,18,3.42,3.42,16.86-16.87a102.66,102.66,0,0,0,14.51,20.27l-1.48-1.49-98,98,3.43,3.42,97.91-97.92a101.63,101.63,0,1,0,72.94-172.4Z"/>
  <path class="b" d="M421.61,314a101.63,101.63,0,0,0-66.33,178.64l-84.07,84.07,3.42,3.42L359,495.73a101.22,101.22,0,0,0,25.66,14.63l-22.19,22.19,3.42,3.42,23.8-23.8A101.64,101.64,0,1,0,421.61,314Z"/>
  <path class="c" d="M202.59,86.15H104.18v81l-58.6,58.59L49,229.16,104.18,174V280.06L22.49,361.75l3.42,3.42,81.69-81.69h95a98.67,98.67,0,1,0,0-197.33Z"/>
  <polygon class="d" points="202.84 415.25 202.59 316.59 104.18 316.59 104.18 415.25 104.18 440.24 71.07 473.34 74.49 476.77 104.18 447.08 104.18 510.5 18.26 596.41 21.68 599.83 107.6 513.92 202.59 513.92 301.51 513.92 301.51 415.25 202.84 415.25"/>
</svg>
